<svg xmlns="http://www.w3.org/2000/svg" version="1.1" xmlns:xlink="http://www.w3.org/1999/xlink" xmlns:svgjs="http://svgjs.dev/svgjs" width="1000" height="1000"><g clip-path="url(#SvgjsClipPath1023)"><rect width="1000" height="1000" fill="#ffffff"></rect><g transform="matrix(0.9765625,0,0,0.9765625,0,0)"><svg xmlns="http://www.w3.org/2000/svg" version="1.1" xmlns:xlink="http://www.w3.org/1999/xlink" xmlns:svgjs="http://svgjs.dev/svgjs" width="1024.000000pt" height="1024.000000pt"><svg version="1.0" xmlns="http://www.w3.org/2000/svg" width="1024.000000pt" height="1024.000000pt" viewBox="0 0 1024.000000 1024.000000" preserveAspectRatio="xMidYMid meet">

<g transform="translate(0.000000,1024.000000) scale(0.100000,-0.100000)" fill="#000000" stroke="none">
<path d="M3671 7655 c-134 -32 -155 -38 -281 -93 -260 -112 -468 -288 -632
-537 -110 -165 -166 -299 -210 -501 -22 -98 -22 -109 -25 -1369 -3 -905 -1
-1293 7 -1348 67 -464 383 -899 806 -1111 108 -54 204 -87 349 -119 l100 -22
1325 0 c1418 0 1367 -2 1551 51 347 99 621 300 828 607 95 141 155 286 207
498 l28 114 4 1250 c3 1321 3 1319 -44 1507 -49 198 -92 292 -215 473 -138
204 -330 373 -544 480 -122 60 -189 85 -315 117 -85 22 -87 22 -1460 24
l-1375 3 -104 -24z m1232 -281 c73 -37 107 -88 107 -159 0 -82 -60 -166 -132
-186 -65 -17 -129 4 -183 60 -26 28 -30 40 -33 102 -5 91 15 140 72 174 49 29
121 33 169 9z m348 -101 c-8 -15 -10 -15 -11 -2 0 17 10 32 18 25 2 -3 -1 -13
-7 -23z m-1342 7 l619 -1 6 -37 c3 -20 6 -49 6 -63 l0 -27 -147 -7 c-220 -12
-1217 1 -1244 15 l-21 12 28 30 c43 46 106 89 121 84 8 -3 292 -6 632 -6z
m2179 0 l52 0 0 -33 c0 -17 4 -46 9 -63 l9 -31 -61 -7 c-33 -3 -82 -6 -108 -6
l-49 0 0 59 c0 33 -3 67 -7 77 -6 15 -1 17 48 11 30 -4 78 -7 107 -7z m898 0
c7 0 37 -21 68 -47 54 -45 55 -48 34 -56 -51 -21 -276 -36 -520 -37 l-258 0 0
73 0 72 332 -2 c183 -2 338 -3 344 -3z m174 -165 c22 14 34 -46 38 -183 l4
-143 -43 3 -44 3 3 135 c3 122 19 224 29 192 3 -6 9 -10 13 -7z m-244 -111
c35 -24 54 -65 54 -120 0 -41 -5 -51 -39 -85 -34 -35 -44 -39 -88 -39 -41 0
-54 5 -75 28 -51 54 -61 107 -33 162 34 66 122 92 181 54z m-3418 -28 c34 -32
37 -38 37 -91 0 -54 -2 -59 -39 -91 -48 -41 -83 -50 -130 -30 -66 28 -96 118
-61 186 22 43 53 60 107 60 41 0 54 -5 86 -34z m2845 -314 c21 -14 49 -44 63
-67 l24 -42 -4 -666 c-4 -663 -5 -667 -26 -697 -12 -16 -30 -35 -40 -40 -12
-7 -444 -10 -1234 -10 l-1214 0 -32 26 c-61 52 -59 29 -59 640 0 307 -4 607
-7 665 l-7 106 38 42 c21 23 48 47 59 54 25 14 1004 24 1861 19 l540 -4 38
-26z m-3022 -84 c104 -61 179 -175 179 -270 -1 -171 -97 -300 -256 -344 -74
-20 -132 -10 -222 35 -87 44 -140 114 -167 219 -41 157 54 328 209 378 25 9
74 13 127 11 71 -2 93 -7 130 -29z m3684 -53 l0 -70 -31 -3 c-48 -5 -64 18
-64 89 l0 60 48 -3 47 -3 0 -70z m160 51 c11 -16 15 -41 13 -73 l-3 -48 -42
-3 -43 -3 0 69 c0 38 3 72 7 75 15 16 53 6 68 -17z m148 17 c3 -5 8 -36 12
-70 l7 -63 -46 0 -46 0 0 70 0 70 34 0 c19 0 37 -3 39 -7z m-433 -194 l0 -52
-61 6 c-67 6 -82 18 -72 57 9 39 11 40 74 40 l59 0 0 -51z m598 -1 c3 -43 1
-48 -21 -53 -13 -4 -41 -5 -63 -3 l-39 3 -3 53 -3 53 63 -3 63 -3 3 -47z
m-598 -199 l0 -62 -67 7 c-38 4 -72 11 -77 16 -6 6 -6 24 0 47 10 40 27 48
112 52 l32 1 0 -61z m600 39 c0 -7 3 -30 6 -51 l7 -38 -69 3 -69 3 -3 48 -3
47 65 0 c46 0 66 -4 66 -12z m-434 -113 c9 -8 25 -15 37 -16 24 -1 86 -6 102
-8 6 -1 3 -6 -5 -11 -8 -5 -41 -10 -72 -10 -58 0 -88 16 -88 46 0 18 8 18 26
-1z m-166 -136 l0 -49 -57 0 c-32 0 -63 4 -70 8 -7 4 -15 26 -19 49 l-6 42 68
3 c38 2 72 2 77 0 4 -2 7 -25 7 -53z m600 1 l0 -51 -57 3 -58 3 -3 48 -3 47
60 0 61 0 0 -50z m-305 -130 l0 -75 -40 0 -40 0 -3 78 -3 78 43 -3 43 -3 0
-75z m-165 -10 c0 -90 -5 -97 -65 -86 l-35 7 0 79 0 80 50 0 50 0 0 -80z m318
-7 l3 -83 -34 0 c-19 0 -39 6 -46 13 -6 8 -14 46 -17 86 l-7 72 49 -3 49 -3 3
-82z m-3958 -150 c0 -123 -2 -126 -71 -121 -32 2 -61 7 -64 10 -3 3 -2 44 1
91 l7 86 41 4 c95 8 86 16 86 -70z m-330 -28 l0 -95 -60 0 -60 0 0 95 0 95 60
0 60 0 0 -95z m4203 -101 c64 -22 140 -92 174 -162 25 -50 28 -68 28 -147 -1
-77 -5 -97 -27 -140 -50 -95 -141 -160 -243 -174 -153 -21 -282 45 -347 177
-28 56 -33 78 -33 137 0 59 5 81 33 137 38 77 111 149 175 171 57 21 182 21
240 1z m-3811 -316 c-4 -175 -9 -198 -55 -232 -27 -20 -40 -21 -243 -19 l-215
1 -34 27 -35 26 0 177 0 177 293 3 292 4 -3 -164z m3118 -288 c25 -14 82 -110
118 -200 39 -97 187 -428 246 -549 25 -52 46 -103 46 -114 0 -10 -9 -32 -20
-47 -13 -18 -16 -31 -10 -35 37 -23 -36 -116 -131 -167 l-44 -23 -1630 0
-1630 0 -39 23 c-51 30 -133 100 -141 120 -8 22 14 33 55 26 l35 -6 -43 22
c-23 13 -49 35 -57 51 -14 26 -13 35 11 106 14 43 33 91 41 106 8 15 34 76 58
135 23 59 60 145 80 192 20 47 50 118 66 159 35 92 71 138 135 173 l49 27
1354 0 c745 1 1357 3 1359 6 9 9 73 5 92 -5z m-3430 -317 c0 -60 -5 -275 -12
-480 -16 -500 -6 -592 72 -637 33 -20 54 -21 338 -24 l302 -4 0 -32 c0 -21 -8
-40 -21 -52 -19 -17 -42 -19 -263 -23 -240 -3 -276 0 -388 35 -14 4 -18 -1
-18 -24 0 -38 90 -125 146 -142 25 -7 179 -13 439 -17 438 -5 419 -3 503 -70
69 -57 78 -85 87 -270 l7 -163 -56 0 c-61 0 -62 1 -68 79 -3 29 -8 36 -33 43
-16 5 -203 11 -416 12 -424 4 -413 2 -477 69 l-33 34 63 7 c35 3 240 4 455 2
l393 -4 56 -31 c32 -17 59 -29 61 -27 4 4 -55 102 -85 141 -49 62 -28 60 -492
65 -499 6 -465 -1 -561 122 -71 91 -88 132 -119 277 -22 101 -23 117 -16 470
3 202 9 453 12 559 l7 192 58 0 59 0 0 -107z m4143 -205 c9 -399 8 -812 -2
-868 -40 -215 -51 -242 -141 -343 -87 -97 -55 -91 -540 -97 l-425 -5 -33 -23
c-32 -23 -156 -169 -165 -194 -8 -25 -19 1 -24 59 -10 105 52 199 167 255 44
21 52 22 420 20 478 -3 479 -3 539 57 25 25 56 58 68 73 22 27 22 28 3 38 -12
7 -51 6 -122 -1 -57 -6 -192 -11 -300 -12 l-196 -2 -31 29 c-73 70 -44 77 291
80 311 3 309 3 353 77 19 33 20 50 18 464 -1 237 -4 490 -8 563 l-7 132 65 0
64 0 6 -302z m-2777 -855 c36 -23 64 -84 64 -140 1 -47 2 -49 43 -67 26 -12
86 -63 158 -135 l116 -117 6 -124 c4 -68 7 -154 7 -192 l0 -68 -54 0 c-66 0
-66 -2 -66 176 0 72 -5 145 -11 162 -12 35 -244 226 -265 218 -48 -19 -96 -28
-117 -22 -57 14 -126 103 -127 161 0 35 19 89 42 118 44 54 145 69 204 30z
m1422 16 c38 -13 88 -84 97 -138 12 -73 -19 -137 -82 -170 -34 -17 -104 -13
-140 9 -18 11 -33 16 -33 11 0 -4 -10 -13 -22 -18 -25 -12 -195 -156 -215
-182 -9 -11 -12 -69 -13 -193 l0 -178 -60 0 -60 0 0 190 0 189 44 63 c62 89
181 195 243 219 17 6 23 16 23 41 0 40 30 106 58 131 38 34 106 45 160 26z
m-693 -40 c49 -44 65 -78 65 -144 0 -71 -18 -106 -76 -145 -34 -24 -44 -36
-38 -48 4 -10 10 -123 12 -252 l4 -235 -62 3 -61 4 6 246 7 247 -37 23 c-96
61 -98 227 -3 307 24 20 40 25 88 25 52 0 64 -4 95 -31z m557 -479 c3 -25 7
-111 7 -192 l1 -148 -59 0 -59 0 4 163 c3 89 7 177 10 195 5 32 6 33 47 30 41
-3 42 -4 49 -48z m-1195 -53 c3 -4 8 -70 11 -147 l5 -140 -62 0 -61 0 6 143
c3 78 7 147 9 153 3 12 79 4 92 -9z m2399 -60 c10 -9 -32 -54 -71 -75 -26 -15
-74 -17 -385 -17 -195 0 -369 -1 -387 -3 -46 -3 -63 -25 -63 -83 l0 -49 -60 0
-60 0 0 68 c0 45 5 75 16 90 19 28 82 61 137 72 51 10 862 8 873 -3z"></path>
<path d="M4804 7272 c-16 -10 -34 -48 -34 -71 0 -43 73 -55 108 -18 28 30 28
48 -1 75 -24 22 -53 28 -73 14z"></path>
<path d="M6834 6915 c-3 -8 -3 -19 1 -25 11 -17 35 -11 35 9 0 23 -29 36 -36
16z"></path>
<path d="M3407 6914 c-8 -8 3 -34 14 -34 5 0 9 9 9 20 0 19 -11 26 -23 14z"></path>
<path d="M3084 6455 c-51 -30 -94 -91 -101 -143 -15 -114 96 -230 210 -219 83
7 157 82 165 165 15 159 -145 275 -274 197z"></path>
<path d="M7045 5431 c-42 -26 -92 -81 -104 -114 -16 -41 -13 -104 5 -143 68
-144 254 -151 350 -13 88 127 -3 289 -162 289 -40 0 -68 -6 -89 -19z m118
-102 c12 -7 29 -21 39 -33 61 -72 -76 -153 -146 -87 -34 32 -33 63 5 100 32
33 65 39 102 20z"></path>
<path d="M2973 5275 c0 -33 2 -45 4 -27 2 18 2 45 0 60 -2 15 -4 0 -4 -33z"></path>
<path d="M2964 5152 c4 -7 1 -15 -8 -18 -14 -5 -14 -8 -1 -21 8 -8 15 -25 15
-39 0 -14 6 -27 14 -30 8 -3 12 -12 9 -20 -4 -11 6 -14 50 -14 30 0 70 3 88 7
l34 8 -45 6 c-43 6 -42 6 20 8 65 2 130 12 163 26 12 5 17 2 17 -9 0 -9 8 -16
20 -16 16 0 20 7 20 31 0 46 -23 58 -110 59 -86 0 -248 16 -275 26 -13 5 -16
4 -11 -4z"></path>
<path d="M3389 5071 c8 -5 10 -14 6 -22 -6 -11 -5 -11 5 -2 14 12 6 33 -13 33
-8 0 -7 -3 2 -9z"></path>
<path d="M3873 4780 c-106 -47 -66 -200 53 -200 41 0 104 68 104 113 0 76 -82
121 -157 87z"></path>
<path d="M4274 4786 c-107 -47 -67 -206 52 -206 31 0 90 55 100 94 9 37 -13
85 -50 107 -36 22 -60 23 -102 5z"></path>
<path d="M4694 4793 c-12 -2 -34 -17 -50 -34 -64 -67 -12 -179 82 -179 19 0
39 13 66 40 43 46 49 84 21 127 -15 23 -71 55 -90 52 -4 -1 -18 -4 -29 -6z"></path>
<path d="M5090 4789 c-66 -26 -95 -91 -66 -147 22 -42 53 -62 97 -62 41 0 74
30 98 87 18 44 -6 99 -53 118 -40 17 -42 17 -76 4z"></path>
<path d="M5485 4786 c-44 -19 -67 -50 -68 -90 -2 -64 47 -116 108 -116 34 0
90 56 100 99 16 74 -68 138 -140 107z"></path>
<path d="M5873 4781 c-38 -24 -53 -49 -53 -91 0 -74 85 -129 148 -96 40 21 72
67 72 105 0 75 -99 124 -167 82z"></path>
<path d="M6248 4761 c-27 -24 -33 -36 -33 -71 0 -36 6 -47 38 -76 50 -47 94
-47 140 0 40 39 49 73 31 114 -28 68 -118 85 -176 33z"></path>
<path d="M5958 4452 c-31 -4 -76 -45 -84 -79 -16 -63 39 -133 105 -133 34 0
44 5 67 35 35 46 43 112 18 143 -21 25 -65 39 -106 34z"></path>
<path d="M3784 4431 c-37 -22 -59 -70 -50 -107 12 -45 59 -84 101 -84 30 0 45
8 76 39 50 50 53 94 10 140 -35 37 -88 42 -137 12z"></path>
<path d="M4189 4421 c-82 -82 18 -219 122 -166 67 35 88 93 52 145 -28 40 -45
49 -96 50 -41 0 -53 -5 -78 -29z"></path>
<path d="M4589 4422 c-25 -23 -31 -35 -31 -72 -1 -25 4 -55 10 -66 11 -21 13
-21 549 -17 l538 5 24 26 c19 21 22 33 18 64 -3 21 -12 50 -21 63 l-16 25
-520 0 -520 0 -31 -28z"></path>
<path d="M6341 4436 c-48 -26 -63 -84 -36 -136 21 -40 53 -60 96 -60 31 0 43
7 73 42 21 24 36 52 36 68 0 72 -101 124 -169 86z"></path>
<path d="M4677 4108 c-20 -49 -40 -128 -35 -134 7 -6 968 -12 968 -6 0 13 -53
148 -62 159 -8 10 -101 13 -434 13 l-424 0 -13 -32z"></path>
<path d="M4350 3471 c-22 -53 29 -99 79 -72 53 29 28 101 -34 101 -27 0 -35
-5 -45 -29z"></path>
<path d="M5812 3488 c-20 -20 -15 -76 7 -88 46 -24 81 -2 81 52 0 31 -18 48
-50 48 -14 0 -31 -5 -38 -12z"></path>
<path d="M5080 3470 c-26 -26 -25 -51 1 -84 25 -32 49 -33 77 -3 29 30 28 71
0 91 -30 21 -54 20 -78 -4z"></path>
</g>
</svg></svg></g></g><defs><clipPath id="SvgjsClipPath1023"><rect width="1000" height="1000" x="0" y="0" rx="350" ry="350"></rect></clipPath></defs></svg>